<?xml version="1.0" encoding="utf-8"?>
<!-- Generator: Adobe Illustrator 19.2.1, SVG Export Plug-In . SVG Version: 6.00 Build 0)  -->
<svg version="1.1" id="Layer_1" xmlns="http://www.w3.org/2000/svg" xmlns:xlink="http://www.w3.org/1999/xlink" x="0px" y="0px"
	 viewBox="0 0 127.7 115.2" style="enable-background:new 0 0 127.7 115.2;" xml:space="preserve">
<style type="text/css">
	.st0{fill:#052547;}
</style>
<title>css</title>
<path class="st0" d="M0,96.3c1.6-8.2,3.1-15.8,4.8-23.5c0.3-1,1.2-1.8,2.3-2.2c6.4-0.2,12.9-0.1,19.5-0.1c-0.3,2-0.5,3.6-0.8,5.2
	c-1,5.4-1,5.4,4.4,7.4c7.3,2.8,14.6,5.7,22,8.3c1.9,0.6,3.9,0.7,5.8,0.1c9.8-3,19.5-6.3,29.1-9.6c1.1-0.4,2.7-1.2,2.9-2
	c1.7-7.5,3.2-15,4.9-23H7.7c1.3-7,2.5-13.5,4-20c0.2-0.9,2.5-1.7,3.8-1.7c19.7-0.1,39.5-0.1,59.2-0.1c7.1,0,14.2-0.1,21.2,0
	c2.2,0,3.5-0.4,3.8-3c0.4-3.3,1.3-6.6,2.1-10.5H14.7c1.4-7.1,2.6-13.6,4.1-20.1c0.5-0.9,1.4-1.5,2.5-1.6c35-0.1,70.1-0.1,105.1,0
	c0.5,0.1,1,0.2,1.4,0.4c-1.9,9.4-3.7,18.8-5.6,28.1c-4.3,21.5-8.5,43.1-12.9,64.6c-0.5,1.7-1.6,3.1-3.2,3.9
	c-17.7,6.1-35.4,11.9-53.2,17.8c-1.2,0.5-2.4,0.5-3.7,0.2C32.9,108.9,16.6,102.7,0,96.3z"/>
</svg>
