<?xml version="1.0" encoding="utf-8"?>
<!-- Generator: Adobe Illustrator 19.2.1, SVG Export Plug-In . SVG Version: 6.00 Build 0)  -->
<svg version="1.1" id="Layer_1" xmlns="http://www.w3.org/2000/svg" xmlns:xlink="http://www.w3.org/1999/xlink" x="0px" y="0px"
	 viewBox="0 0 150 170.3" style="enable-background:new 0 0 150 170.3;" xml:space="preserve">
<style type="text/css">
	.st0{fill:#052547;}
</style>
<title>html</title>
<path class="st0" d="M0.1,0H150c-0.4,4.3-0.7,8.6-1.1,12.8c-0.9,9.6-1.7,19.1-2.6,28.7c-1,11.1-2,22.2-3,33.3
	c-0.8,9.5-1.7,19-2.5,28.5c-1,10.9-1.9,21.8-2.9,32.8c-0.5,5.3-1,10.6-1.4,16c0,0.8-0.5,1.5-1.4,1.6c-19.8,5.5-39.6,11-59.3,16.6
	c-0.8,0.2-1.5,0.2-2.3,0c-19.5-5.5-39-11-58.5-16.5c-0.9-0.1-1.6-0.9-1.5-1.8c-0.8-9.9-1.8-19.8-2.6-29.7c-1-10.9-2-21.7-2.9-32.6
	C7,80,6.2,70.4,5.4,60.9c-1-10.9-2-21.9-3-32.8C1.6,19,0.8,9.8,0,0.6C0,0.4,0,0.2,0.1,0z M122.1,31.4H27.9c0.5,6,1,11.9,1.6,17.8
	c1.1,12.3,2.2,24.6,3.2,36.9c0.1,1.7,0.5,2.3,2.3,2.3c20.3-0.1,40.6,0,60.9,0h2.2l-2.3,24.2c-5.9,1.6-11.8,3.1-17.6,4.8
	c-2.2,0.7-4.5,0.7-6.6,0c-5.8-1.7-11.7-3.2-17.6-4.8l-1.4-14.8H34c-0.1,0.2-0.1,0.5-0.1,0.8c0.7,9.2,1.5,18.5,2.2,27.7
	c0,0.8,0.6,1.5,1.5,1.5c12.1,3.3,24.2,6.7,36.3,10c0.6,0.2,1.2,0.2,1.8,0.1c12.2-3.4,24.4-6.8,36.6-10.1c0.8-0.1,1.4-0.9,1.4-1.8
	c1.5-16.7,3.1-33.5,4.6-50.2c0.2-2.1,0.3-4.1,0.5-6.4H50.2l-1.6-19.2h71.8L122.1,31.4z"/>
</svg>
