<?xml version="1.0" encoding="utf-8"?>
<!-- Generator: Adobe Illustrator 19.2.1, SVG Export Plug-In . SVG Version: 6.00 Build 0)  -->
<svg version="1.1" id="Layer_1" xmlns="http://www.w3.org/2000/svg" xmlns:xlink="http://www.w3.org/1999/xlink" x="0px" y="0px"
	 viewBox="0 0 232.6 230.4" style="enable-background:new 0 0 232.6 230.4;" xml:space="preserve">
<style type="text/css">
	.st0{fill:#052547;}
</style>
<title>jquery</title>
<path class="st0" d="M227.3,171.9c-1,1.9-1.9,3.8-2.9,5.7c-8.8,15.7-20.6,28.6-36.2,37.9c-11.1,6.6-23.3,11-36.1,13.1
	c-24.5,4.3-49.7,1.4-72.5-8.4c-14.8-6.2-27.8-15.3-39.4-26.4c-11.4-10.7-20.8-23.3-27.8-37.3C3.8,138.9-0.8,120.4,0,100.8
	c0.8-21.6,9-42.3,23.2-58.6c2-2.4,4.2-4.6,6.5-6.6c-0.1,0.3-0.2,0.7-0.4,1c-4.7,7.4-6.5,15.8-7.9,24.2c-6.3,36.5,4.6,67.9,29.3,94.7
	c21.5,23.3,48.2,37.2,79.3,42.9c14.8,2.7,29.7,3.2,44.5,0c18.7-3.8,36.1-12.4,50.4-25c0.7-0.6,1.3-1.2,2-1.9L227.3,171.9z"/>
<path class="st0" d="M232.6,112.2c-2,5-4.6,9.6-7.9,13.8c-10.1,13-23.4,20.9-39.2,24.9c-16.5,4.3-33.8,4.3-50.3,0
	c-11.6-3-21.9-9-31.1-16.6c-14.6-12-25.7-26.6-31.5-44.7c-7.4-22.9-4.9-44.7,8.6-65c2.2-3.4,4.7-6.6,7-9.9c0.7-1,1.5-1.9,2.4-2.7
	c-0.6,1.3-1.2,2.6-1.8,3.9c-5.3,10.9-6.6,22.5-5.5,34.5c1.7,19.3,9.9,37.5,23.2,51.7c15.9,17.2,35.3,28.1,58.5,31.7
	c24.4,3.7,45.9-3.1,64.6-19.1c0.9-0.9,1.8-1.9,2.5-2.9L232.6,112.2z"/>
<path class="st0" d="M230.7,62.9c-1.4,1.7-2.7,3.6-4.2,5.2c-5.4,5.5-11.4,10.2-18,14.1c-4.8,2.9-10.1,4.1-15.6,4.7
	c-9.7,1.1-19.3,0.4-28.4-3.3c-15-6-25.9-16.4-32.1-31.4c-5.9-14.4-5.2-28.8,1.4-42.9c1.7-3.5,4-6.6,6.9-9.2c-0.7,3.1-1.5,6-2.1,9
	c-3.4,16.1,0.9,30.3,10.3,43.4c5.7,8,13.6,13,22,17.3c15.6,7.9,31.3,7.5,46.9,0c4.4-2.1,8.5-4.6,12.8-6.9L230.7,62.9z"/>
</svg>
