<?xml version="1.0" encoding="utf-8"?>
<!-- Generator: Adobe Illustrator 19.2.1, SVG Export Plug-In . SVG Version: 6.00 Build 0)  -->
<svg version="1.1" id="Layer_1" xmlns="http://www.w3.org/2000/svg" xmlns:xlink="http://www.w3.org/1999/xlink" x="0px" y="0px"
	 viewBox="0 0 174.1 196.8" style="enable-background:new 0 0 174.1 196.8;" xml:space="preserve">
<style type="text/css">
	.st0{fill:#052547;}
</style>
<title>node</title>
<path class="st0" d="M0.1,98.3c0-13,0.2-26-0.1-39c-0.2-8,3.1-13.5,10-17.3c7.9-4.3,15.7-9,23.5-13.5L69.1,8c3.3-1.9,6.7-3.8,10-5.8
	c5.5-3.1,11-2.9,16.4,0.2c13,7.5,26.1,15.1,39.1,22.6c10.5,6.1,21,12.1,31.4,18.2c5.2,3,8.1,7.5,8.1,13.6c0,27.6,0,55.2,0,82.9
	c0,6.5-3.4,11-8.9,14.2c-7.9,4.5-15.8,9.2-23.7,13.7c-12.5,7.2-25,14.4-37.5,21.6c-3.4,2-6.8,4-10.3,5.8c-4.4,2.4-9.7,2.2-13.9-0.4
	c-8.2-4.7-16.3-9.6-24.5-14.5c-0.7-0.4-1.8-0.8-1.7-1.7c0-1.1,1.2-1.2,2-1.4c3.3-1.1,6.5-2.5,9.5-4.3c1-0.6,2.2-0.6,3.1,0.1
	c5.8,3.5,11.6,6.9,17.4,10.3c0.9,0.6,2,0.6,2.9,0.1l42.1-24.3c9.4-5.4,18.8-10.8,28.1-16.2c1.6-0.7,2.5-2.3,2.4-4
	c-0.1-27-0.1-54,0-81c0.1-1.4-0.6-2.7-1.8-3.3c-13.1-7.5-26.1-15-39.1-22.6c-10.6-6.1-21.1-12.2-31.7-18.3c-0.9-0.6-2-0.6-2.9,0
	c-6.3,3.7-12.7,7.3-19,11L33.4,43.6c-6.2,3.6-12.5,7.2-18.8,10.8c-1.1,0.6-1.8,1.9-1.6,3.2c0,21,0,41.9,0,62.9c0,6.2,0,12.5,0,18.7
	c-0.1,1.2,0.5,2.4,1.6,3c6.4,3.7,12.8,7.5,19.3,11c2.8,1.6,6,2.6,9.4,1.8c5-1.1,7.8-4.6,7.8-9.7c0-23.6,0-47.2,0-70.8
	c0-3.4,0-6.8,0-10.2c0-1.9,0.7-2.6,2.6-2.6c2.8,0,5.6,0,8.4,0c1.1-0.2,2,0.6,2.2,1.6c0,0.1,0,0.2,0,0.4c0,0.6,0.1,1.2,0.1,1.8
	c0,26.3,0,52.7,0,79c0,4.5-0.3,9-2.4,13.2c-2.5,5.3-7.4,9.1-13.2,10c-3.9,0.8-8,0.8-11.9,0c-3.6-0.8-7.1-2.2-10.3-4
	c-6.6-3.6-13.2-7.3-19.6-11.4c-4.3-2.6-6.9-7.3-6.7-12.3C0,126.2,0.1,112.3,0.1,98.3L0.1,98.3L0.1,98.3z"/>
<path class="st0" d="M108.7,138.3c-6.2,0.1-12.4-0.7-18.4-2.4c-6.1-1.8-11.6-4.8-15.3-10.2c-2.8-4.2-4.2-9.1-4-14.2
	c0-1.1,0.9-1.9,1.9-1.9c3.2-0.3,6.4-0.3,9.6,0c1.1,0.1,2,1,2,2.2c0.3,2.1,0.9,4.2,1.8,6.1c1.9,3.2,5,5.5,8.7,6.3
	c6.6,1.7,13.2,1.7,20,1.2c3.1-0.2,6.3-0.8,9.2-1.8c4.6-1.5,7.4-6.2,6.5-11c-0.4-2.6-2.3-3.9-4.5-4.9c-4.9-2.1-10.2-2.8-15.4-3.4
	c-6.7-0.8-13.4-1.3-20-2.9c-3.2-0.8-6.3-2-9.1-3.6c-4.8-2.8-7.9-7.8-8.2-13.4c-0.6-6.9,1-13.1,6.3-18c3.5-3.1,7.7-5.3,12.3-6.3
	c8.2-2.2,16.4-2.1,24.7-1c5.5,0.7,10.8,2.2,15.4,5.4c5.4,3.7,8.3,9,9.5,15.3c0.2,1,0.4,2,0.5,3.1c0.3,2-0.5,3-2.5,3.1
	c-2.8,0-5.7,0-8.5,0c-1.3,0.1-2.4-0.8-2.6-2.1c-1-4-2.6-7.6-6.3-9.8c-2.6-1.4-5.4-2.3-8.3-2.5c-4.7-0.6-9.5-0.6-14.3,0
	c-3.7,0.5-7.3,1.2-10,4.1c-3,3.3-2.3,9.4,1.3,11.1c1.9,0.8,3.8,1.4,5.8,1.8c5.6,1.2,11.2,1.9,16.9,2.7c4.4,0.6,8.8,1.4,13.2,2.4
	c3.5,0.8,6.8,2.1,10,3.8c5.2,3.1,7.8,7.8,8.3,13.7c0.6,5-0.5,10.1-3.2,14.5c-2.3,3.6-5.6,6.4-9.4,8.2c-5.2,2.6-10.9,3.7-16.7,4.3
	C113.4,138.2,111,138.3,108.7,138.3z"/>
</svg>
